# xmcd
#
# Track frame offsets: 
#        150
#        9730
#        29042
#        40554
#        50663
#        60631
#        73370
#        85169
#        96679
#        108372
#        120738
#        127214
#        138566
#        149497
#        159643
#        171507
#        183235
#        190550
#        202124
#        213245
#
# Disc length: 3020 seconds
#
# Revision: 0
# Processed by: cddbd v1.5.2PL0 Copyright (c) Steve Scherf et al.
# Submitted via: ExactAudioCopy v1.3
#
DISCID=3c0bca14
DTITLE=Eddie Cash - A Sentimental Journey - Disc 1
DYEAR=1900
DGENRE=Rock and Roll
TTITLE0=Sentimental Journey
TTITLE1=Rainy Night in Georgia
TTITLE2=Beyond the Sea
TTITLE3=Stand by Me
TTITLE4=Sea of Love
TTITLE5=Blue Hawaii
TTITLE6=Summer Wind
TTITLE7=Dock of the Bay
TTITLE8=Blue Velvet
TTITLE9=Forever and a Day
TTITLE10=Edelweiss
TTITLE11=Georgia
TTITLE12=Blue on Blue
TTITLE13=The Way You Look Tonight
TTITLE14=Roses are Red
TTITLE15=Night Life
TTITLE16=To Be Loved
TTITLE17=Everybody Loves Somebody
TTITLE18=Runaway
TTITLE19=Alone At Last
EXTD=
EXTT0=
EXTT1=
EXTT2=
EXTT3=
EXTT4=
EXTT5=
EXTT6=
EXTT7=
EXTT8=
EXTT9=
EXTT10=
EXTT11=
EXTT12=
EXTT13=
EXTT14=
EXTT15=
EXTT16=
EXTT17=
EXTT18=
EXTT19=
PLAYORDER=
